/* XPM */
static char *newC0_removebg_preview1670782909[] = {
/* columns rows colors chars-per-pixel */
"64 64 105 2 ",
"   c None",
".  c #000000",
"X  c #080500",
"o  c #00000B",
"O  c #1D1C0C",
"+  c #000011",
"@  c #00001D",
"#  c #2E2906",
"$  c #2D290D",
"%  c #332C00",
"&  c #3D360D",
"*  c #000020",
"=  c #040E22",
"-  c #000029",
";  c #000B28",
":  c #0E1521",
">  c #2B2C2C",
",  c #3A3627",
"<  c #3E3C25",
"1  c #4B4107",
"2  c #4A410F",
"3  c #4F4711",
"4  c #70621C",
"5  c #554C29",
"6  c #4B4630",
"7  c #504A30",
"8  c #7B6F2B",
"9  c #7C702C",
"0  c #7D6F31",
"q  c #7E784A",
"w  c #81721F",
"e  c #8F7E27",
"r  c #8A7B2C",
"t  c #8B7D37",
"y  c #82753C",
"u  c #847F4F",
"i  c #958428",
"p  c #9A8B33",
"a  c #A18E2C",
"s  c #AA9A3D",
"d  c #B5A337",
"f  c #BCA638",
"g  c #C1AA37",
"h  c #C2AC39",
"j  c #C4B03D",
"k  c #CAB33B",
"l  c #87804A",
"z  c #8B834A",
"x  c #90884E",
"c  c #958D57",
"v  c #999359",
"b  c #A39956",
"n  c #A49B5B",
"m  c #BCAA40",
"M  c #ADA360",
"N  c #B1A761",
"B  c #C1AE41",
"V  c #C8B440",
"C  c #CEBA42",
"Z  c #D5BE41",
"A  c #C4BA6F",
"S  c #DAC345",
"D  c #DEC848",
"F  c #D5C250",
"G  c #E7CC45",
"H  c #E9CE46",
"J  c #E9CE49",
"K  c #ECD147",
"L  c #EED44A",
"P  c #F1D546",
"I  c #F4D842",
"U  c #F9DF46",
"Y  c #F1D64A",
"T  c #F5DA4C",
"R  c #F9DE4C",
"E  c #E3CC53",
"W  c #F6DC51",
"Q  c #F8DF51",
"!  c #FBE14D",
"~  c #F7E056",
"^  c #FBE253",
"/  c #FFE956",
"(  c #F7E159",
")  c #FAE25A",
"_  c #FFF059",
"`  c #CEC273",
"'  c #D9CD7C",
"]  c #DDD17D",
"[  c #F6E162",
"{  c #FAE465",
"}  c #FBE56B",
"|  c #F7E574",
" . c #FAE670",
".. c #FCE872",
"X. c #F4E47E",
"o. c #F9E67A",
"O. c #FBE97B",
"+. c #EDE18B",
"@. c #FBEB82",
"#. c #FCED8D",
"$. c #FFF28E",
"%. c #FCEF93",
"&. c #FEF496",
"*. c #FFFA96",
"=. c #FFFC9A",
/* pixels */
"                                                                                                                                ",
"                                                                                                                                ",
"                                                                                                                                ",
"                                                                                                                                ",
"                                                                                                                                ",
"                                                                                                                                ",
"                                                                                                                                ",
"                                                                                                                                ",
"                                                                                                                                ",
"                                                                                                                                ",
"                                                                                                                                ",
"                                                                                                                                ",
"                                                                                                                                ",
"                                                                                                                                ",
"                                                                                                                                ",
"                                                                                                                                ",
"                                                                                                                                ",
"                                                        . . . . . . . .                                                         ",
"                                                        l z z z z z u x                                                         ",
"                                                  . . < &.&.&.&.&.&.&.=.u . . -                                                 ",
"                                              o c ` A ` o. . . . .}  ...F h C m -                                               ",
"                                              . N =.*.$.[ ~ R R ! ! ! R / ^ _ C .                                               ",
"                                          . < +.X.[ [ ( J J L J J G J H W ^ ^ W W 8 @                                           ",
"                                          q b #.O.) W Y L L K K L L L L Y R ~ ^ ^ d 9                                           ",
"                                        . ] *.[ ( ^ L G ^ ^ ! ! R ! ^ ^ L J ^ ^ ^ / W $ >                                       ",
"                                        . ' $.) W L Y W ! { O.O.o.o.} ! Y Y L W ^ ^ L . ;                                       ",
"                                        O ' &.Q Y G W ) Q ..%.%.%.%.O.! ^ ~ H L ) ^ Y 3 6                                       ",
"                                    . b #.| [ J L ^ ! ) #.o.Y W W W Y L W ) R } #.{ ^ ^ B o                                     ",
"                                    . n =.} Q J L ^ ^ ) %.o.I T U T Y P R ^ ! ..%.{ R ^ j .                                     ",
"                                    . n &.{ R G L ^ ! ) #.o.I T Y T T P W ^ !  .&.{ R Q g .                                     ",
"                                    . n &.{ W G Y ^ ^ ) &.o.I T T T T K W ^ !  .%.{ R ! h .                                     ",
"                                    . n =.{ R G L ) ^ ) #.o.I T T T Y K ~ ~ ! } %.{ R ! h .                                     ",
"                                    . n &.{ R G Y ^ ^ ) %.o.I T T T Y P ~ ^ !  .%.{ W ! h .                                     ",
"                                    . b &.{ R H Y ^ ^ ) %.o.I T T T T K R ^ !  .%.{ R W h .                                     ",
"                                    o M =.} R H K ) W ) %.o.I R T T T K W ^ U } &.{ R / k .                                     ",
"                                      l v E ^ T T K R ) } [ Y Y P P T R ~ ^ @.O.{ ^ P a t                                       ",
"                                        . Z / ^ W G T ^ ! R L Y Y L W ^ ^ ) %.O.U R G . -                                       ",
"                                        . D / W W ^ K G ! ! R R ! R R U @.#.) ^ ^ ! P % >                                       ",
"                                        * m S ^ ^ ^ Y T } } } } } } } } O.O.^ R ^ S k ,                                         ",
"                                          o & ) ^ Q ^ [ %.%.%.%.%.%.%.&.{ R ^ W ! w +                                           ",
"                                              r V / ^ ) { } } } } } } } ^ R ^ Z e y                                             ",
"                                              . p W T W R R R R R R R R Y K T f .                                               ",
"                                                  3 # 4 R Q R ^ ! ! R R i X 1 7                                                 ",
"                                                  = @ 5 k k k k k k k k 0 @ :                                                   ",
"                                                        . . . . . . . .                                                         ",
"                                                                                                                                ",
"                                                                                                                                ",
"                                                                                                                                ",
"                                                                                                                                ",
"                                                                                                                                ",
"                                                                                                                                ",
"                                                                                                                                ",
"                                                                                                                                ",
"                                                                                                                                ",
"                                                                                                                                ",
"                                                                                                                                ",
"                                                                                                                                ",
"                                                                                                                                ",
"                                                                                                                                ",
"                                                                                                                                ",
"                                                                                                                                ",
"                                                                                                                                ",
"                                                                                                                                ",
"                                                                                                                                "
};
