/* XPM */
static char *newC1_removebg_preview1670784121[] = {
/* columns rows colors chars-per-pixel */
"64 64 97 2 ",
"   c None",
".  c #000000",
"X  c #000009",
"o  c #000015",
"O  c #00001C",
"+  c #281F00",
"@  c #332D05",
"#  c #3A3405",
"$  c #3A3414",
"%  c #3B341A",
"&  c #000024",
"*  c #00002B",
"=  c #000828",
"-  c #061025",
";  c #1C1F26",
":  c #161C2C",
">  c #191F2C",
",  c #403704",
"<  c #403914",
"1  c #4C441A",
"2  c #514815",
"3  c #454120",
"4  c #4B4622",
"5  c #504B2A",
"6  c #655B24",
"7  c #635F39",
"8  c #83742F",
"9  c #887A31",
"0  c #9D8B2C",
"q  c #938335",
"w  c #9A8B36",
"e  c #A5922C",
"r  c #AC9A33",
"t  c #A7973B",
"y  c #B09E35",
"u  c #B39F38",
"i  c #B3A136",
"p  c #BAA63A",
"a  c #C3AD3A",
"s  c #C6B039",
"d  c #C8B13A",
"f  c #D2BA3E",
"g  c #E3C634",
"h  c #E5C93B",
"j  c #E9CD3B",
"k  c #938B55",
"l  c #AAA262",
"z  c #B8AE65",
"x  c #B9AF68",
"c  c #D3BE42",
"v  c #C1B76D",
"b  c #C8BE73",
"n  c #D9C344",
"m  c #DEC849",
"M  c #E5CB44",
"N  c #E9CE45",
"B  c #E6CC49",
"V  c #ECD146",
"C  c #EDD34A",
"Z  c #F5D946",
"A  c #F1D649",
"S  c #F5DA4D",
"D  c #F8DD4D",
"F  c #E9D055",
"G  c #EAD25A",
"H  c #EFD85E",
"J  c #F0D756",
"K  c #F5DC50",
"L  c #F8DF52",
"P  c #F6DE5B",
"I  c #FBE14E",
"U  c #FAE153",
"Y  c #FFEB57",
"T  c #FBE359",
"R  c #FFEC58",
"E  c #FFF15C",
"W  c #D5CA79",
"Q  c #D9CE7B",
"!  c #DBD07C",
"~  c #E8D367",
"^  c #E4D77D",
"/  c #FAE360",
"(  c #FBE66C",
")  c #FAE775",
"_  c #FBE877",
"`  c #F7E57D",
"'  c #FAE77B",
"]  c #EFE184",
"[  c #EFE38C",
"{  c #FBEA81",
"}  c #F7EB8F",
"|  c #FBED8E",
" . c #FFF38F",
".. c #FBEE91",
"X. c #FFF493",
"o. c #FFF994",
"O. c #FFFE99",
/* pixels */
"                                                                                                                                ",
"                                                                                                                                ",
"                                                                                                                                ",
"                                                                                                                                ",
"                                                                                                                                ",
"                                                                                                                                ",
"                                                                                                                                ",
"                                                                                                                                ",
"                                                                                                                                ",
"                                                                                                                                ",
"                                                                                                                                ",
"                                                                                                                                ",
"                                                                                                                                ",
"                                                                                                                                ",
"                                                                                                                                ",
"                                                                                                                                ",
"                                                                                                                                ",
"                                                        . . . . . . . . *                                                       ",
"                                                        l v z z z x z c t                                                       ",
"                                                      . ! O.o.X.X.X.X.E c .                                                     ",
"                                                  . k [ ~ F F F G F F U K C 9 O                                                 ",
"                                                  7 z  .H j V N V N V S L Y i 6                                                 ",
"                                              o 5 ..` g D U D I I U U M C U T K < :                                             ",
"                                              . 4 } ` h K T ) ' ) / I N C U U S # -                                             ",
"                                              . 3 ..` h D T ....X.( I N C U U K @ =                                             ",
"                                            . b ] G H S ' { P P P J A K S N K K M p O                                           ",
"                                            . Q o.M V I { ..S Z Z Z C U D M K L I s .                                           ",
"                                            . W  .N C I { } D D D C C U S M K L S a .                                           ",
"                                            . W  .B C I { | D A S A A U K M K K D a .                                           ",
"                                            . W  .B C I { | D Z S A A U S M K K D a .                                           ",
"                                            . W  .B C I { | S S S Z C U D M K U D a .                                           ",
"                                            . W  .B C I ' ..K S S A C U K M K K S a .                                           ",
"                                            . W  .B C I ' | D Z S Z A U D M K K D a .                                           ",
"                                            . W  .B C I { } K S S C A U S M K L D a .                                           ",
"                                            . W  .B A I { | S S S A C U S M K L D a .                                           ",
"                                            . Q o.B C U { ..S S S Z A U S M K U I d .                                           ",
"                                            . v ^ C C S ) { S Z S S S K S B K K n u O                                           ",
"                                              . + K S M D U V C V K U M C U D M . *                                             ",
"                                              O 2 K K M K U S S K L U M C U D M , ;                                             ",
"                                              O 1 K D M K U U U U U U M C U S M $ >                                             ",
"                                                  $ y Y C M V N N N C L K I e %                                                 ",
"                                                  O q m B C M N N M N L C f 8 &                                                 ",
"                                                      . n E S D D D S I d .                                                     ",
"                                                        w r 0 0 0 0 0 e q                                                       ",
"                                                        O . X X X X X X *                                                       ",
"                                                                                                                                ",
"                                                                                                                                ",
"                                                                                                                                ",
"                                                                                                                                ",
"                                                                                                                                ",
"                                                                                                                                ",
"                                                                                                                                ",
"                                                                                                                                ",
"                                                                                                                                ",
"                                                                                                                                ",
"                                                                                                                                ",
"                                                                                                                                ",
"                                                                                                                                ",
"                                                                                                                                ",
"                                                                                                                                ",
"                                                                                                                                ",
"                                                                                                                                ",
"                                                                                                                                ",
"                                                                                                                                "
};
