/* XPM */
static char *newC2_removebg_preview1670784221[] = {
/* columns rows colors chars-per-pixel */
"64 64 188 2 ",
"   c None",
".  c black",
"X  c #000001",
"o  c #000002",
"O  c #000003",
"+  c #000004",
"@  c #000005",
"#  c #000006",
"$  c #000007",
"%  c #000009",
"&  c #00000D",
"*  c #000012",
"=  c #322C07",
"-  c #332C07",
";  c #352E08",
":  c #36300A",
">  c #37310B",
",  c #37310C",
"<  c #383208",
"1  c #38320B",
"2  c #3A3516",
"3  c #554B13",
"4  c #524914",
"5  c #524915",
"6  c #534A14",
"7  c #534A15",
"8  c #574E16",
"9  c #524A1C",
"0  c #7B6C1F",
"q  c #7E6F25",
"w  c #827226",
"e  c #877928",
"r  c #887A28",
"t  c #897A28",
"y  c #897B29",
"u  c #8D7F2C",
"i  c #8F802B",
"p  c #918026",
"a  c #90812B",
"s  c #91822B",
"d  c #95862E",
"f  c #96872E",
"g  c #97882F",
"h  c #968731",
"j  c #9F8F31",
"k  c #A49333",
"l  c #A79635",
"z  c #AC9B35",
"x  c #B09B33",
"c  c #BEA736",
"v  c #C0AA38",
"b  c #C5AE39",
"n  c #C0AC3D",
"m  c #E4C82F",
"M  c #E5C92F",
"N  c #E6C931",
"B  c #E6CA31",
"V  c #E5C933",
"C  c #E5C935",
"Z  c #E6CA39",
"A  c #E5C93A",
"S  c #E5C93F",
"D  c #E7CB3F",
"F  c #CFBA43",
"G  c #D1BB43",
"H  c #D6C146",
"J  c #DEC441",
"K  c #DEC541",
"L  c #DFC642",
"P  c #E4C940",
"I  c #E7CC41",
"U  c #E5CA44",
"Y  c #E5CA45",
"T  c #E6CB45",
"R  c #E7CC45",
"E  c #E7CD47",
"W  c #E8CC40",
"Q  c #E8CD40",
"!  c #E9CE47",
"~  c #E3CD4B",
"^  c #E9CE48",
"/  c #EACF49",
"(  c #EBD042",
")  c #EAD049",
"_  c #EBD049",
"`  c #EBD04A",
"'  c #EDD148",
"]  c #EDD249",
"[  c #ECD34B",
"{  c #EFD54B",
"}  c #E9D34E",
"|  c #EDD44C",
" . c #F2D543",
".. c #F3D840",
"X. c #F5DA41",
"o. c #F4D943",
"O. c #F5DB47",
"+. c #F9DF45",
"@. c #F9DF46",
"#. c #F0D648",
"$. c #F0D44B",
"%. c #F0D54B",
"&. c #F0D64C",
"*. c #F6D949",
"=. c #F5DB4B",
"-. c #F5DB4D",
";. c #F4DA4E",
":. c #F5DB4F",
">. c #F6DC4C",
",. c #E8CF53",
"<. c #EACF54",
"1. c #E9D054",
"2. c #EAD054",
"3. c #F0D850",
"4. c #F1D850",
"5. c #F1D950",
"6. c #F2DA51",
"7. c #F3DB53",
"8. c #F4DB50",
"9. c #F5DB50",
"0. c #F5DB51",
"q. c #F7DD50",
"w. c #F6DD52",
"e. c #F7DD53",
"r. c #F6DE52",
"t. c #F7DE52",
"y. c #F9DF50",
"u. c #F8DF51",
"i. c #F6DC58",
"p. c #F5DD5B",
"a. c #F9E047",
"s. c #FAE047",
"d. c #F9E054",
"f. c #F9E055",
"g. c #FBE354",
"h. c #FBE255",
"j. c #F9E156",
"k. c #FCE356",
"l. c #FEE555",
"z. c #FFE754",
"x. c #FEE655",
"c. c #FFE655",
"v. c #FFE755",
"b. c #FDE457",
"n. c #FEE557",
"m. c #FFE557",
"M. c #FFE656",
"N. c #FFE756",
"B. c #FFE657",
"V. c #FFE856",
"C. c #FBE35B",
"Z. c #FBE35F",
"A. c #FFED58",
"S. c #FFEF59",
"D. c #FFF35B",
"F. c #ECD567",
"G. c #F6DE67",
"H. c #EFDB7A",
"J. c #FBE361",
"K. c #FCE460",
"L. c #F6E073",
"P. c #FCE87C",
"I. c #F6E489",
"U. c #FCE989",
"Y. c #F5E495",
"T. c #F5E496",
"R. c #F5E596",
"E. c #FBEA92",
"W. c #FAE997",
"Q. c #FCEB97",
"!. c #F6E699",
"~. c #F7E79D",
"^. c #FCEB98",
"/. c #FCEC98",
"(. c #FCEC9A",
"). c #F7E9A3",
"_. c #FDEEA1",
"`. c #FCEFAC",
"'. c #FDF1B4",
"]. c #FDF1B5",
"[. c #FDF2B5",
"{. c #FEF2B5",
"}. c #FDF1B6",
"|. c #FDF2B6",
" X c #FDF2B7",
".X c #FEF3B6",
"XX c #FEF4B9",
"oX c #FEF4BD",
/* pixels */
"                                                                                                                                ",
"                                                                                                                                ",
"                                                                                                                                ",
"                                                                                                                                ",
"                                                                                                                                ",
"                                                                                                                                ",
"                                                                                                                                ",
"                                                                                                                                ",
"                                                                                                                                ",
"                                                                                                                                ",
"                                                                                                                                ",
"                                                                                                                                ",
"                                                                                                                                ",
"                                                                                                                                ",
"                                                                                                                                ",
"                                                                                                                                ",
"                                                                                                                                ",
"                                                          . . . . . .                                                           ",
"                                                          s e y y y i                                                           ",
"                                                      . l A.l.l.l.l.A.g .                                                       ",
"                                                      . j V.{ { u.d.l.s .                                                       ",
"                                                      . k V.) T h.e.V.d .                                                       ",
"                                                  & 9 } { E o.h.`.E.a.7.~ 2                                                     ",
"                                                  @ 3 h.r.P G.P. X(.@.l.r.< %                                                   ",
"                                                  @ 5 r.0.V ).oX.X^.@.k.3., %                                                   ",
"                                                  @ 6 r.:.S L.U..X^.@.b.7.; %                                                   ",
"                                                  @ 6 u.:.U O.C.'.^.@.k.7., @                                                   ",
"                                                  @ 6 r.0.C ~..X'.^.@.b.7., @                                                   ",
"                                                  @ 6 u.0.A I._..XW...r.) : @                                                   ",
"                                                  @ 5 u.0.Y X.h..XT.m ^ K - @                                                   ",
"                                                  @ 6 r.:.U :.J..XT.V ) K - %                                                   ",
"                                                  @ 6 u.:.Y *.Z..XT.C / P - @                                                   ",
"                                                  @ 6 r.r.Y -.Z..XT.N / P - @                                                   ",
"                                                  . 6 u.:.I #.i.'.T.V ' K - %                                                   ",
"                                                  . 6 r.:.Y U 1..XT.V / K - @                                                   ",
"                                                  @ 6 u.:.Y Q 2.'.T.M / P - %                                                   ",
"                                                  . 6 u.-.T Q 2..XR.M _ L = &                                                   ",
"                                                  . 6 r.-.T Q <..XR.B _ L = %                                                   ",
"                                                  . 5 r.:.Y I 2.'.Y.V _ K - &                                                   ",
"                                                  @ 8 l.u.Y  .i. XR.V ' Y ; *                                                   ",
"                                                      u n l.    H.F.( x w                                                       ",
"                                                      . g D.    Z Z _ q .                                                       ",
"                                                      . z A.b.V.$.Q O.u .                                                       ",
"                                                      . g H G G v v b w @                                                       ",
"                                                          . . . . . .                                                           ",
"                                                                                                                                ",
"                                                                                                                                ",
"                                                                                                                                ",
"                                                                                                                                ",
"                                                                                                                                ",
"                                                                                                                                ",
"                                                                                                                                ",
"                                                                                                                                ",
"                                                                                                                                ",
"                                                                                                                                ",
"                                                                                                                                ",
"                                                                                                                                ",
"                                                                                                                                ",
"                                                                                                                                ",
"                                                                                                                                ",
"                                                                                                                                ",
"                                                                                                                                ",
"                                                                                                                                ",
"                                                                                                                                "
};
