/* XPM */
static char *_b1f32c98f9a4578c0b2bfc11e9e57d170beiSqPUEvGAFSs[] = {
/* columns rows colors chars-per-pixel */
"64 64 17 1 ",
"  c None",
". c #101010",
"X c #240312",
"o c #28221E",
"O c #490A1E",
"+ c #5B3843",
"@ c #595047",
"# c #6C444C",
"$ c #655452",
"% c #7D595D",
"& c #862B2A",
"* c #A25342",
"= c #AE674B",
"- c #928182",
"; c #928684",
": c #AA9393",
"> c #AEA8A8",
/* pixels */
"                                                                ",
"                                                                ",
"                                                                ",
"                                                                ",
"                                                                ",
"                                                                ",
"                                                                ",
"                                                                ",
"                                                                ",
"                                                                ",
"                                                                ",
"                                                                ",
"                          O&&****                               ",
"                         OOO&&****                              ",
"                        XOO&&&&***                              ",
"                        XO&&&&&&&==                             ",
"                       XX&&&@%%ooO=                             ",
"                       XOOoo@%%%oO=                             ",
"                      XXOoo%@:::oO=                             ",
"                      XXXo@%::::@O=                             ",
"                      XXXo@O::::@O*                             ",
"                       XXo@OO%%o@*                              ",
"                         o@@OOOo@                               ",
"                        Xo@@&&&o@@                              ",
"                       XXX@@@&&**@                              ",
"                      XXXOOO@&&***@                             ",
"                      XXOOOOOO&&***                             ",
"                     XXXXOOO&&&&**>                             ",
"                     $XXXOO&&&&&**>                             ",
"                     $XXXXO&&&&&*>:                             ",
"                    ##$$$--O&&&->%%:                            ",
"                    #% ....----.. %:                            ",
"                    #% .......... %:                            ",
"                    #% .......... %%                            ",
"                      ............                              ",
"                      ............                              ",
"                     ...+.........                              ",
"                       +++.....%%>                              ",
"                       $; ....;;>                               ",
"                      $;;  ..  ;>                               ",
"                      $;   .   ;>                               ",
"                     .$        ;.                               ",
"                     ...       ...                              ",
"                                                                ",
"                                                                ",
"                                                                ",
"                                                                ",
"                                                                ",
"                                                                ",
"                                                                ",
"                                                                ",
"                                                                ",
"                                                                ",
"                                                                ",
"                                                                ",
"                                                                ",
"                                                                ",
"                                                                ",
"                                                                ",
"                                                                ",
"                                                                ",
"                                                                ",
"                                                                ",
"                                                                "
};
